<svg xmlns="http://www.w3.org/2000/svg" xml:space="preserve" style="enable-background:new 0 0 179.5 179.5" viewBox="0 0 179.5 179.5"><path d="M35.362 28.163c0 4.063-3.122 7.354-6.978 7.354H13.263c-3.867-.005-6.989-3.285-6.989-7.354 0-4.058 3.122-7.348 6.989-7.348h15.115c3.857 0 6.984 3.291 6.984 7.348zm0 41.06c0-4.058-3.122-7.359-6.978-7.359H13.263c-3.867 0-6.989 3.291-6.989 7.359 0 4.058 3.122 7.354 6.989 7.354h15.115c3.857-.011 6.984-3.296 6.984-7.354zm0 41.043c0-4.058-3.122-7.354-6.978-7.354H13.263c-3.867.005-6.989 3.285-6.989 7.354 0 4.058 3.122 7.359 6.989 7.359h15.115c3.857 0 6.984-3.29 6.984-7.359zm0 41.049c0-4.052-3.122-7.343-6.978-7.343H13.263c-3.867.005-6.989 3.285-6.989 7.343 0 4.068 3.122 7.359 6.989 7.359h15.115c3.857 0 6.984-3.291 6.984-7.359zM173.226 8.033v163.438c0 4.427-3.59 8.028-8.023 8.028H28.987a8.027 8.027 0 0 1-8.033-8.028v-7h7.419c6.891 0 12.499-5.896 12.499-13.141 0-7.239-5.608-13.135-12.499-13.135h-7.419v-14.783h7.419c6.891 0 12.499-5.896 12.499-13.141s-5.608-13.13-12.499-13.13h-7.419V82.364h7.419c6.891 0 12.499-5.896 12.499-13.141s-5.608-13.141-12.499-13.141h-7.419V41.304h7.419c6.891 0 12.499-5.896 12.499-13.141s-5.608-13.13-12.499-13.13h-7.419v-7A8.028 8.028 0 0 1 28.987 0h136.221c4.428 0 8.018 3.59 8.018 8.033zm-91.028 60.14c.19-2.382 1.713-4.955 3.666-4.688 2.197.31 7.626 4.313 9.584 5.341 5.33 2.736 13.919-18.466 9.932-20.962-3.122-1.931-5.918-4.558-9.317-5.967-.571-.234-1.202-.234-1.817-.364-13.897-3.111-28.076 8.882-29.523 26.929-.566 6.897-.881 13.804-1.017 20.717h-.033c.011.19.022.37.022.566s-.011.359-.022.566h.033a317.86 317.86 0 0 0 1.017 20.717c1.447 18.036 15.626 30.029 29.523 26.918.615-.12 1.246-.125 1.817-.354 3.399-1.409 6.195-4.03 9.317-5.972 3.981-2.491-4.601-23.682-9.932-20.962-1.953 1.028-7.381 5.047-9.584 5.352-1.942.267-3.476-2.317-3.666-4.694-.511-6.288-.054-14.332-.011-21h.011v-1.132h-.011c-.044-6.679-.5-14.718.011-21.011zm34.576 39.651c9.975-9.975 9.975-26.184 0-36.159l-5.303 5.314c7.054 7.044 7.054 18.504 0 25.536l5.303 5.309zm9.469 9.448c15.17-15.17 15.17-39.868-.011-55.049l-5.303 5.303c12.26 12.26 12.26 32.199 0 44.453l5.314 5.293zm9.154-64.203-5.303 5.298c17.296 17.302 17.296 45.46 0 62.761l5.303 5.303c20.217-20.233 20.217-53.14 0-73.362z" /></svg>